<svg xmlns="http://www.w3.org/2000/svg" version="1.1" xmlns:xlink="http://www.w3.org/1999/xlink" xmlns:svgjs="http://svgjs.dev/svgjs" width="128" height="128" viewBox="0 0 128 128"><g transform="matrix(0.64375,0,0,0.64375,22.387213438303128,11.647896449999983)"><svg viewBox="0 0 48 60" data-background-color="#ffffff" preserveAspectRatio="xMidYMid meet" height="160" width="128" xmlns="http://www.w3.org/2000/svg" xmlns:xlink="http://www.w3.org/1999/xlink"><g id="tight-bounds" transform="matrix(1,0,0,1,0.24045819127972834,0.49637100000001055)"><svg viewBox="0 0 47.519083617440536 59.00725799999999" height="59.00725799999999" width="47.519083617440536"><g><svg viewBox="0 0 47.519083617440536 59.00725799999999" height="59.00725799999999" width="47.519083617440536"><g><svg viewBox="0 0 47.519083617440536 59.00725799999999" height="59.00725799999999" width="47.519083617440536"><g><svg viewBox="0 0 47.519083617440536 59.00725799999999" height="59.00725799999999" width="47.519083617440536"><g id="textblocktransform"><svg viewBox="0 0 47.519083617440536 59.00725799999999" height="59.00725799999999" width="47.519083617440536" id="textblock"><g><svg viewBox="0 0 47.519083617440536 59.00725799999999" height="59.00725799999999" width="47.519083617440536"><g><svg viewBox="0 0 47.519083617440536 59.00725799999999" height="59.00725799999999" width="47.519083617440536"><g><svg xmlns="http://www.w3.org/2000/svg" xmlns:xlink="http://www.w3.org/1999/xlink" version="1.1" x="0" y="0" viewBox="18.058455059464396 10.3 63.94154494053561 79.4" style="enable-background:new 0 0 100 100;" xml:space="preserve" height="59.00725799999999" width="47.519083617440536" class="icon-icon-0" data-fill-palette-color="accent" id="icon-0"><path d="M72.3 19.4C66.3 13.5 58.4 10.3 50 10.3H49.1C32.6 10.8 18.9 24.1 18.1 40.6 17.4 54.5 25.6 67.2 38.6 72.2 41.1 73.1 43 75 44.2 77.4L50 89.7 55.9 77.4C57.1 75 59 73.2 61.5 72.2 73.8 67.5 82 55.5 82 42.3 82 33.6 78.6 25.4 72.3 19.4M65 46.2V56.3C65 57.4 64.1 58.3 63 58.3H37C35.9 58.3 35 57.4 35 56.3V46.2C33.8 44.9 33 43.2 33 41.3V41L35 28C35.1 27 36 26.3 37 26.3H63C64 26.3 64.8 27 65 28L67 41V41.3C67 43.2 66.2 44.9 65 46.2M60 48.3C60.3 48.3 60.7 48.3 61 48.2V54.3H39V48.2C39.3 48.2 39.7 48.3 40 48.3 42 48.3 43.7 47.5 45 46.2 46.3 47.5 48 48.3 50 48.3S53.7 47.5 55 46.2C56.3 47.5 58 48.3 60 48.3M61.3 30.3L63 41.4C62.9 43 61.6 44.3 60 44.3 58.3 44.3 57 42.9 57 41.3 57 40.2 56.1 39.3 55 39.3S53 40.2 53 41.3C53 42.9 51.7 44.3 50 44.3S47 42.9 47 41.3C47 40.2 46.1 39.3 45 39.3S43 40.2 43 41.3C43 42.9 41.7 44.3 40 44.3 38.4 44.3 37.1 43 37 41.4L38.7 30.3z" fill="#14c688" data-fill-palette-color="accent"></path></svg></g></svg></g></svg></g></svg></g></svg></g></svg></g></svg></g><defs></defs></svg><rect width="47.519083617440536" height="59.00725799999999" fill="none" stroke="none" visibility="hidden"></rect></g></svg></g></svg>