<svg xmlns="http://www.w3.org/2000/svg" version="1.1" xmlns:xlink="http://www.w3.org/1999/xlink" xmlns:svgjs="http://svgjs.dev/svgjs" width="2000" height="732" viewBox="0 0 2000 732"><g transform="matrix(1,0,0,1,-1.2121212121212466,-1.508128262751086)"><svg viewBox="0 0 396 145" data-background-color="#ffffff" preserveAspectRatio="xMidYMid meet" height="732" width="2000" xmlns="http://www.w3.org/2000/svg" xmlns:xlink="http://www.w3.org/1999/xlink"><g id="tight-bounds" transform="matrix(1,0,0,1,0.2400000000000091,0.29874125423347664)"><svg viewBox="0 0 395.52 144.40251749153305" height="144.40251749153305" width="395.52"><g><svg viewBox="0 0 395.52 144.40251749153305" height="144.40251749153305" width="395.52"><g><svg viewBox="0 0 595.2970218046198 217.34018154277697" height="144.40251749153305" width="395.52"><g transform="matrix(1,0,0,1,199.77702180461986,56.24843579242637)"><svg viewBox="0 0 395.52 104.84330995792423" height="104.84330995792423" width="395.52"><g id="textblocktransform"><svg viewBox="0 0 395.52 104.84330995792423" height="104.84330995792423" width="395.52" id="textblock"><g><svg viewBox="0 0 395.52 104.84330995792423" height="104.84330995792423" width="395.52"><g transform="matrix(1,0,0,1,0,0)"><svg width="395.52" viewBox="0.75 -37.5 142.59 37.8" height="104.84330995792423" data-palette-color="#0a6847"><path d="M13.15-31.35L13.15-31.35Q13.15-31.35 10.5-31.4L10.5-31.4Q3.5-31.4 3.5-27.3L3.5-27.3Q3.5-24.5 6.35-23.95L6.35-23.95Q8.25-23.6 8.25-21.95L8.25-21.95Q8.25-21.05 7.63-20.53 7-20 5.95-20L5.95-20Q3.75-20 2.25-21.88 0.75-23.75 0.75-26.15L0.75-26.15Q0.75-34.8 15.55-34.8L15.55-34.8 25.65-34.8Q26.45-34.8 27.08-34.27 27.7-33.75 27.7-32.85 27.7-31.95 27.08-31.43 26.45-30.9 25.65-30.9L25.65-30.9 17.9-31.15Q17.5-22.55 17.5-17.48 17.5-12.4 17.73-7.65 17.95-2.9 17.95-2.1 17.95-1.3 17.28-0.5 16.6 0.3 15.55 0.3 14.5 0.3 13.83-0.5 13.15-1.3 13.15-2.1 13.15-2.9 13.38-7.65 13.6-12.4 13.6-17.05 13.6-21.7 13.15-31.35ZM42.15-8.55L42.15-8.55 41.65-19.8Q41.65-21.15 42.32-21.98 43-22.8 43.95-22.8 44.9-22.8 45.5-22.03 46.1-21.25 46.1-19.93 46.1-18.6 45.8-16.2L45.8-16.2Q45.2-11.4 45.2-7.6L45.2-7.6Q45.2-6.1 46.17-4.73 47.15-3.35 47.15-2.25 47.15-1.15 46.4-0.43 45.65 0.3 44.7 0.3L44.7 0.3Q42.2 0.3 42.2-3.65L42.2-3.65Q39.85 0.3 36.3 0.3L36.3 0.3Q33.45 0.3 31.77-1.75 30.1-3.8 29.45-6.75L29.45-6.75 27.55-15.35Q27.25-16.8 26.22-17.93 25.2-19.05 25.2-20.2 25.2-21.35 26-22.08 26.8-22.8 27.9-22.8L27.9-22.8Q30.4-22.8 31.15-18.85L31.15-18.85 33.05-8.4Q34-3.4 37.8-3.4L37.8-3.4Q39.65-3.4 40.85-4.88 42.05-6.35 42.15-8.55ZM57.1-35.1L57.1-35.1 56.65-19 56.65-15.95Q58.75-19.05 62-20.93 65.25-22.8 67.7-22.8L67.7-22.8Q72.3-22.8 72.3-20.15L72.3-20.15Q72.3-19.05 71.62-18.38 70.95-17.7 70.27-17.7 69.6-17.7 68.05-18.3 66.5-18.9 65-18.9L65-18.9Q60.95-18.9 58.75-15.55L58.75-15.55Q63.7-10.8 68.35-7.3L68.35-7.3Q72.2-4.4 72.8-3.55 73.4-2.7 73.4-1.8 73.4-0.9 72.8-0.3 72.2 0.3 71.22 0.3 70.25 0.3 69.02-0.78 67.8-1.85 64.4-5.13 61-8.4 56.8-11.75L56.8-11.75Q57.1-5.45 57.1-2.1L57.1-2.1Q57.1-1.05 56.5-0.38 55.9 0.3 54.95 0.3 54 0.3 53.32-0.38 52.65-1.05 52.65-2.6 52.65-4.15 52.9-9.98 53.15-15.8 53.15-19 53.15-22.2 52.9-27.6 52.65-33 52.65-34.55 52.65-36.1 53.32-36.8 54-37.5 54.95-37.5 55.9-37.5 56.5-36.83 57.1-36.15 57.1-35.1ZM91.84-8.55L91.84-8.55 91.34-19.8Q91.34-21.15 92.02-21.98 92.69-22.8 93.64-22.8 94.59-22.8 95.19-22.03 95.79-21.25 95.79-19.93 95.79-18.6 95.49-16.2L95.49-16.2Q94.89-11.4 94.89-7.6L94.89-7.6Q94.89-6.1 95.87-4.73 96.84-3.35 96.84-2.25 96.84-1.15 96.09-0.43 95.34 0.3 94.39 0.3L94.39 0.3Q91.89 0.3 91.89-3.65L91.89-3.65Q89.54 0.3 85.99 0.3L85.99 0.3Q83.14 0.3 81.47-1.75 79.79-3.8 79.14-6.75L79.14-6.75 77.24-15.35Q76.94-16.8 75.92-17.93 74.89-19.05 74.89-20.2 74.89-21.35 75.69-22.08 76.49-22.8 77.59-22.8L77.59-22.8Q80.09-22.8 80.84-18.85L80.84-18.85 82.74-8.4Q83.69-3.4 87.49-3.4L87.49-3.4Q89.34-3.4 90.54-4.88 91.74-6.35 91.84-8.55ZM102.64-24.6L102.64-24.6Q102.14-24.6 102.14-25.15L102.14-25.15Q102.14-25.55 102.64-26.48 103.14-27.4 103.14-28.35 103.14-29.3 102.62-30.35 102.09-31.4 102.09-32.5 102.09-33.6 102.74-34.2 103.39-34.8 104.49-34.8L104.49-34.8Q106.39-34.8 106.39-32.43 106.39-30.05 104.99-27.33 103.59-24.6 102.64-24.6ZM124.54-14.83Q123.59-15.85 123.59-17.25 123.59-18.65 124.54-19.68 125.49-20.7 126.81-20.7 128.14-20.7 129.06-19.7 129.99-18.7 129.99-17.28 129.99-15.85 129.06-14.83 128.14-13.8 126.81-13.8 125.49-13.8 124.54-14.83ZM114.34-18.18Q114.34-12.1 117.91-7.6 121.49-3.1 127.09-3.1 132.69-3.1 135.96-6.68 139.24-10.25 139.24-16.32 139.24-22.4 135.66-26.9 132.09-31.4 126.46-31.4 120.84-31.4 117.59-27.83 114.34-24.25 114.34-18.18ZM125.59 0.3L125.59 0.3Q119.09 0.3 114.66-4.38 110.24-9.05 110.24-15.7L110.24-15.7Q110.24-24 115.24-29.4 120.24-34.8 127.99-34.8L127.99-34.8Q134.49-34.8 138.91-30.13 143.34-25.45 143.34-18.8L143.34-18.8Q143.34-10.5 138.34-5.1 133.34 0.3 125.59 0.3Z" opacity="1" transform="matrix(1,0,0,1,0,0)" fill="#0a6847" class="wordmark-text-0" data-fill-palette-color="primary" id="text-0"></path></svg></g></svg></g></svg></g></svg></g><g><svg viewBox="0 0 175.02603256299295 217.34018154277697" height="217.34018154277697" width="175.02603256299295"><g><svg xmlns="http://www.w3.org/2000/svg" xmlns:xlink="http://www.w3.org/1999/xlink" version="1.1" x="0" y="0" viewBox="18.058455059464396 10.3 63.94154494053561 79.4" style="enable-background:new 0 0 100 100;" xml:space="preserve" height="217.34018154277697" width="175.02603256299295" class="icon-icon-0" data-fill-palette-color="accent" id="icon-0"><path d="M72.3 19.4C66.3 13.5 58.4 10.3 50 10.3H49.1C32.6 10.8 18.9 24.1 18.1 40.6 17.4 54.5 25.6 67.2 38.6 72.2 41.1 73.1 43 75 44.2 77.4L50 89.7 55.9 77.4C57.1 75 59 73.2 61.5 72.2 73.8 67.5 82 55.5 82 42.3 82 33.6 78.6 25.4 72.3 19.4M65 46.2V56.3C65 57.4 64.1 58.3 63 58.3H37C35.9 58.3 35 57.4 35 56.3V46.2C33.8 44.9 33 43.2 33 41.3V41L35 28C35.1 27 36 26.3 37 26.3H63C64 26.3 64.8 27 65 28L67 41V41.3C67 43.2 66.2 44.9 65 46.2M60 48.3C60.3 48.3 60.7 48.3 61 48.2V54.3H39V48.2C39.3 48.2 39.7 48.3 40 48.3 42 48.3 43.7 47.5 45 46.2 46.3 47.5 48 48.3 50 48.3S53.7 47.5 55 46.2C56.3 47.5 58 48.3 60 48.3M61.3 30.3L63 41.4C62.9 43 61.6 44.3 60 44.3 58.3 44.3 57 42.9 57 41.3 57 40.2 56.1 39.3 55 39.3S53 40.2 53 41.3C53 42.9 51.7 44.3 50 44.3S47 42.9 47 41.3C47 40.2 46.1 39.3 45 39.3S43 40.2 43 41.3C43 42.9 41.7 44.3 40 44.3 38.4 44.3 37.1 43 37 41.4L38.7 30.3z" fill="#0a6847" data-fill-palette-color="accent"></path></svg></g></svg></g></svg></g></svg></g><defs></defs></svg><rect width="395.52" height="144.40251749153305" fill="none" stroke="none" visibility="hidden"></rect></g></svg></g></svg>